# xmcd
#
# Track frame offsets:
#	150
#	18311
#	38656
#	53341
#	71247
#	88288
#	103073
#	120738
#	138268
#	158247
#	176503
#	194805
#	223861
#
# Disc length: 4071 seconds
#
# Revision: 1
# Processed by: cddbd v1.5.2PL0 Copyright (c) Steve Scherf et al.
# Submitted via: audiograbber 1.83.01
#
DISCID=bc0fe50d
DTITLE=Various Artist - ASK1562
DYEAR=2009
DGENRE=Country
TTITLE0=Carrie Underwodd - Cowboy Casanova
TTITLE1=Carrie Underwood - Temporary Home
TTITLE2=Carrie Underwood - Undo It
TTITLE3=Lady Antebellum - Need You Now
TTITLE4=Lady Antebellum - American Honey
TTITLE5=Miranda Lambert - Kerosene
TTITLE6=Miranda Lambert - House That Built Me, The
TTITLE7=Miranda Lambert - Time To Get A Gun
TTITLE8=Taylor Swift - White Liar
TTITLE9=Taylor Swift - Fearless
TTITLE10=Taylor Swift - Today Was A Fairytale
TTITLE11=Taylor Swift - You Belong With Me
TTITLE12=Data - Data Track
EXTD=Initial Submit
EXTT0=
EXTT1=
EXTT2=
EXTT3=
EXTT4=
EXTT5=
EXTT6=
EXTT7=
EXTT8=
EXTT9=
EXTT10=
EXTT11=
EXTT12=
PLAYORDER=
